<svg width="185" height="58" viewBox="0 0 185 58" fill="none" xmlns="http://www.w3.org/2000/svg">
<circle cx="11.5" cy="15.5" r="11.5" fill="white"/>
<circle cx="35.5" cy="39.5" r="11.5" fill="#8D34FF"/>
<circle cx="35.5" cy="15.5" r="11.5" fill="#88E3FF"/>
<path d="M68.684 29.716C69.476 29.716 70.124 29.656 70.628 29.536C71.156 29.392 71.576 29.212 71.888 28.996C72.2 28.756 72.416 28.48 72.536 28.168C72.656 27.856 72.716 27.508 72.716 27.124C72.716 26.308 72.332 25.636 71.564 25.108C70.796 24.556 69.476 23.968 67.604 23.344C66.788 23.056 65.972 22.732 65.156 22.372C64.34 21.988 63.608 21.52 62.96 20.968C62.312 20.392 61.784 19.708 61.376 18.916C60.968 18.1 60.764 17.116 60.764 15.964C60.764 14.812 60.98 13.78 61.412 12.868C61.844 11.932 62.456 11.14 63.248 10.492C64.04 9.844 65 9.352 66.128 9.016C67.256 8.656 68.528 8.476 69.944 8.476C71.624 8.476 73.076 8.656 74.3 9.016C75.524 9.376 76.532 9.772 77.324 10.204L75.704 14.632C75.008 14.272 74.228 13.96 73.364 13.696C72.524 13.408 71.504 13.264 70.304 13.264C68.96 13.264 67.988 13.456 67.388 13.84C66.812 14.2 66.524 14.764 66.524 15.532C66.524 15.988 66.632 16.372 66.848 16.684C67.064 16.996 67.364 17.284 67.748 17.548C68.156 17.788 68.612 18.016 69.116 18.232C69.644 18.424 70.22 18.628 70.844 18.844C72.14 19.324 73.268 19.804 74.228 20.284C75.188 20.74 75.98 21.28 76.604 21.904C77.252 22.528 77.732 23.26 78.044 24.1C78.356 24.94 78.512 25.96 78.512 27.16C78.512 29.488 77.696 31.3 76.064 32.596C74.432 33.868 71.972 34.504 68.684 34.504C67.58 34.504 66.584 34.432 65.696 34.288C64.808 34.168 64.016 34.012 63.32 33.82C62.648 33.628 62.06 33.424 61.556 33.208C61.076 32.992 60.668 32.788 60.332 32.596L61.916 28.132C62.66 28.54 63.572 28.912 64.652 29.248C65.756 29.56 67.1 29.716 68.684 29.716ZM87.8371 21.904C88.3651 21.328 88.9051 20.728 89.4571 20.104C90.0331 19.48 90.5851 18.868 91.1131 18.268C91.6411 17.644 92.1331 17.056 92.5891 16.504C93.0691 15.952 93.4771 15.472 93.8131 15.064H100.185C98.9131 16.528 97.6651 17.932 96.4411 19.276C95.2411 20.596 93.9211 21.964 92.4811 23.38C93.2011 24.028 93.9451 24.808 94.7131 25.72C95.4811 26.608 96.2251 27.532 96.9451 28.492C97.6651 29.452 98.3251 30.412 98.9251 31.372C99.5251 32.332 100.029 33.208 100.437 34H94.2811C93.8971 33.376 93.4531 32.692 92.9491 31.948C92.4691 31.18 91.9531 30.424 91.4011 29.68C90.8491 28.912 90.2611 28.18 89.6371 27.484C89.0371 26.788 88.4371 26.2 87.8371 25.72V34H82.4731V6.928L87.8371 6.064V21.904ZM120.836 15.064C119.756 18.712 118.628 22.132 117.452 25.324C116.276 28.516 114.992 31.612 113.6 34.612C113.096 35.692 112.592 36.604 112.088 37.348C111.584 38.116 111.032 38.74 110.432 39.22C109.832 39.724 109.148 40.084 108.38 40.3C107.636 40.54 106.76 40.66 105.752 40.66C104.912 40.66 104.132 40.576 103.412 40.408C102.716 40.264 102.14 40.096 101.684 39.904L102.62 35.62C103.172 35.812 103.664 35.944 104.096 36.016C104.528 36.088 104.984 36.124 105.464 36.124C106.424 36.124 107.156 35.86 107.66 35.332C108.188 34.828 108.632 34.12 108.992 33.208C107.768 30.808 106.544 28.12 105.32 25.144C104.096 22.144 102.944 18.784 101.864 15.064H107.552C107.792 16 108.068 17.02 108.38 18.124C108.716 19.204 109.064 20.308 109.424 21.436C109.784 22.54 110.144 23.62 110.504 24.676C110.888 25.732 111.248 26.692 111.584 27.556C111.896 26.692 112.22 25.732 112.556 24.676C112.892 23.62 113.216 22.54 113.528 21.436C113.864 20.308 114.176 19.204 114.464 18.124C114.776 17.02 115.052 16 115.292 15.064H120.836ZM129.563 34C128.339 31.6 127.091 28.792 125.819 25.576C124.571 22.36 123.383 18.856 122.255 15.064H127.943C128.183 16 128.459 17.02 128.771 18.124C129.107 19.204 129.443 20.308 129.779 21.436C130.139 22.54 130.487 23.62 130.823 24.676C131.183 25.732 131.531 26.692 131.867 27.556C132.179 26.692 132.515 25.732 132.875 24.676C133.235 23.62 133.583 22.54 133.919 21.436C134.279 20.308 134.615 19.204 134.927 18.124C135.263 17.02 135.551 16 135.791 15.064H141.335C140.207 18.856 139.007 22.36 137.735 25.576C136.487 28.792 135.251 31.6 134.027 34H129.563ZM160.372 33.352C159.46 33.616 158.284 33.856 156.844 34.072C155.404 34.312 153.892 34.432 152.308 34.432C150.7 34.432 149.356 34.216 148.276 33.784C147.22 33.352 146.38 32.752 145.756 31.984C145.132 31.192 144.688 30.256 144.424 29.176C144.16 28.096 144.028 26.908 144.028 25.612V15.064H149.392V24.964C149.392 26.692 149.62 27.94 150.076 28.708C150.532 29.476 151.384 29.86 152.632 29.86C153.016 29.86 153.424 29.848 153.856 29.824C154.288 29.776 154.672 29.728 155.008 29.68V15.064H160.372V33.352ZM164.507 24.676C164.507 22.996 164.759 21.532 165.263 20.284C165.791 19.012 166.475 17.956 167.315 17.116C168.155 16.276 169.115 15.64 170.195 15.208C171.299 14.776 172.427 14.56 173.579 14.56C176.267 14.56 178.391 15.388 179.951 17.044C181.511 18.676 182.291 21.088 182.291 24.28C182.291 24.592 182.279 24.94 182.255 25.324C182.231 25.684 182.207 26.008 182.183 26.296H170.015C170.135 27.4 170.651 28.276 171.563 28.924C172.475 29.572 173.699 29.896 175.235 29.896C176.219 29.896 177.179 29.812 178.115 29.644C179.075 29.452 179.855 29.224 180.455 28.96L181.175 33.316C180.887 33.46 180.503 33.604 180.023 33.748C179.543 33.892 179.003 34.012 178.403 34.108C177.827 34.228 177.203 34.324 176.531 34.396C175.859 34.468 175.187 34.504 174.515 34.504C172.811 34.504 171.323 34.252 170.051 33.748C168.803 33.244 167.759 32.56 166.919 31.696C166.103 30.808 165.491 29.764 165.083 28.564C164.699 27.364 164.507 26.068 164.507 24.676ZM177.107 22.624C177.083 22.168 176.999 21.724 176.855 21.292C176.735 20.86 176.531 20.476 176.243 20.14C175.979 19.804 175.631 19.528 175.199 19.312C174.791 19.096 174.275 18.988 173.651 18.988C173.051 18.988 172.535 19.096 172.103 19.312C171.671 19.504 171.311 19.768 171.023 20.104C170.735 20.44 170.507 20.836 170.339 21.292C170.195 21.724 170.087 22.168 170.015 22.624H177.107Z" fill="white"/>
<path d="M168.472 51C168.259 51 168.077 50.9307 167.928 50.792C167.789 50.6427 167.72 50.4613 167.72 50.248C167.72 50.0347 167.789 49.8533 167.928 49.704C168.077 49.5547 168.259 49.48 168.472 49.48C168.685 49.48 168.867 49.5547 169.016 49.704C169.165 49.8533 169.24 50.0347 169.24 50.248C169.24 50.4613 169.165 50.6427 169.016 50.792C168.867 50.9307 168.685 51 168.472 51ZM171.937 41.816C171.67 41.816 171.446 41.7253 171.265 41.544C171.084 41.3627 170.993 41.1387 170.993 40.872C170.993 40.6053 171.084 40.3813 171.265 40.2C171.446 40.0187 171.67 39.928 171.937 39.928C172.214 39.928 172.444 40.0187 172.625 40.2C172.817 40.3813 172.913 40.6053 172.913 40.872C172.913 41.1387 172.817 41.3627 172.625 41.544C172.444 41.7253 172.214 41.816 171.937 41.816ZM171.121 43.32H172.769V51H171.121V43.32ZM179.041 51.24C178.177 51.24 177.414 51.08 176.753 50.76C176.102 50.4293 175.59 49.96 175.217 49.352C174.854 48.7333 174.673 48.008 174.673 47.176C174.673 46.3547 174.854 45.6347 175.217 45.016C175.58 44.3973 176.092 43.9227 176.753 43.592C177.414 43.2507 178.177 43.08 179.041 43.08C179.905 43.08 180.668 43.2507 181.329 43.592C181.99 43.9227 182.502 44.3973 182.865 45.016C183.238 45.6347 183.425 46.3547 183.425 47.176C183.425 48.008 183.238 48.7333 182.865 49.352C182.502 49.96 181.99 50.4293 181.329 50.76C180.668 51.08 179.905 51.24 179.041 51.24ZM179.041 49.96C179.873 49.96 180.534 49.704 181.025 49.192C181.516 48.68 181.761 48.008 181.761 47.176C181.761 46.312 181.516 45.6293 181.025 45.128C180.534 44.6267 179.873 44.376 179.041 44.376C178.209 44.376 177.548 44.6267 177.057 45.128C176.566 45.6293 176.321 46.312 176.321 47.176C176.321 48.008 176.566 48.68 177.057 49.192C177.548 49.704 178.209 49.96 179.041 49.96Z" fill="white"/>
</svg>
