<svg width="126" height="69" viewBox="0 0 126 69" fill="none" xmlns="http://www.w3.org/2000/svg">
<circle cx="11.5" cy="57.5" r="11.5" fill="#011549"/>
<circle cx="60.5" cy="57.5" r="11.5" fill="#8D34FF"/>
<circle cx="35.5" cy="57.5" r="11.5" fill="#88E3FF"/>
<path d="M9.684 29.716C10.476 29.716 11.124 29.656 11.628 29.536C12.156 29.392 12.576 29.212 12.888 28.996C13.2 28.756 13.416 28.48 13.536 28.168C13.656 27.856 13.716 27.508 13.716 27.124C13.716 26.308 13.332 25.636 12.564 25.108C11.796 24.556 10.476 23.968 8.604 23.344C7.788 23.056 6.972 22.732 6.156 22.372C5.34 21.988 4.608 21.52 3.96 20.968C3.312 20.392 2.784 19.708 2.376 18.916C1.968 18.1 1.764 17.116 1.764 15.964C1.764 14.812 1.98 13.78 2.412 12.868C2.844 11.932 3.456 11.14 4.248 10.492C5.04 9.844 6 9.352 7.128 9.016C8.256 8.656 9.528 8.476 10.944 8.476C12.624 8.476 14.076 8.656 15.3 9.016C16.524 9.376 17.532 9.772 18.324 10.204L16.704 14.632C16.008 14.272 15.228 13.96 14.364 13.696C13.524 13.408 12.504 13.264 11.304 13.264C9.96 13.264 8.988 13.456 8.388 13.84C7.812 14.2 7.524 14.764 7.524 15.532C7.524 15.988 7.632 16.372 7.848 16.684C8.064 16.996 8.364 17.284 8.748 17.548C9.156 17.788 9.612 18.016 10.116 18.232C10.644 18.424 11.22 18.628 11.844 18.844C13.14 19.324 14.268 19.804 15.228 20.284C16.188 20.74 16.98 21.28 17.604 21.904C18.252 22.528 18.732 23.26 19.044 24.1C19.356 24.94 19.512 25.96 19.512 27.16C19.512 29.488 18.696 31.3 17.064 32.596C15.432 33.868 12.972 34.504 9.684 34.504C8.58 34.504 7.584 34.432 6.696 34.288C5.808 34.168 5.016 34.012 4.32 33.82C3.648 33.628 3.06 33.424 2.556 33.208C2.076 32.992 1.668 32.788 1.332 32.596L2.916 28.132C3.66 28.54 4.572 28.912 5.652 29.248C6.756 29.56 8.1 29.716 9.684 29.716ZM28.8371 21.904C29.3651 21.328 29.9051 20.728 30.4571 20.104C31.0331 19.48 31.5851 18.868 32.1131 18.268C32.6411 17.644 33.1331 17.056 33.5891 16.504C34.0691 15.952 34.4771 15.472 34.8131 15.064H41.1851C39.9131 16.528 38.6651 17.932 37.4411 19.276C36.2411 20.596 34.9211 21.964 33.4811 23.38C34.2011 24.028 34.9451 24.808 35.7131 25.72C36.4811 26.608 37.2251 27.532 37.9451 28.492C38.6651 29.452 39.3251 30.412 39.9251 31.372C40.5251 32.332 41.0291 33.208 41.4371 34H35.2811C34.8971 33.376 34.4531 32.692 33.9491 31.948C33.4691 31.18 32.9531 30.424 32.4011 29.68C31.8491 28.912 31.2611 28.18 30.6371 27.484C30.0371 26.788 29.4371 26.2 28.8371 25.72V34H23.4731V6.928L28.8371 6.064V21.904ZM61.8359 15.064C60.7559 18.712 59.6279 22.132 58.4519 25.324C57.2759 28.516 55.9919 31.612 54.5999 34.612C54.0959 35.692 53.5919 36.604 53.0879 37.348C52.5839 38.116 52.0319 38.74 51.4319 39.22C50.8319 39.724 50.1479 40.084 49.3799 40.3C48.6359 40.54 47.7599 40.66 46.7519 40.66C45.9119 40.66 45.1319 40.576 44.4119 40.408C43.7159 40.264 43.1399 40.096 42.6839 39.904L43.6199 35.62C44.1719 35.812 44.6639 35.944 45.0959 36.016C45.5279 36.088 45.9839 36.124 46.4639 36.124C47.4239 36.124 48.1559 35.86 48.6599 35.332C49.1879 34.828 49.6319 34.12 49.9919 33.208C48.7679 30.808 47.5439 28.12 46.3199 25.144C45.0959 22.144 43.9439 18.784 42.8639 15.064H48.5519C48.7919 16 49.0679 17.02 49.3799 18.124C49.7159 19.204 50.0639 20.308 50.4239 21.436C50.7839 22.54 51.1439 23.62 51.5039 24.676C51.8879 25.732 52.2479 26.692 52.5839 27.556C52.8959 26.692 53.2199 25.732 53.5559 24.676C53.8919 23.62 54.2159 22.54 54.5279 21.436C54.8639 20.308 55.1759 19.204 55.4639 18.124C55.7759 17.02 56.0519 16 56.2919 15.064H61.8359ZM70.5625 34C69.3385 31.6 68.0905 28.792 66.8185 25.576C65.5705 22.36 64.3825 18.856 63.2545 15.064H68.9425C69.1825 16 69.4585 17.02 69.7705 18.124C70.1065 19.204 70.4425 20.308 70.7785 21.436C71.1385 22.54 71.4865 23.62 71.8225 24.676C72.1825 25.732 72.5305 26.692 72.8665 27.556C73.1785 26.692 73.5145 25.732 73.8745 24.676C74.2345 23.62 74.5825 22.54 74.9185 21.436C75.2785 20.308 75.6145 19.204 75.9265 18.124C76.2625 17.02 76.5505 16 76.7905 15.064H82.3345C81.2065 18.856 80.0065 22.36 78.7345 25.576C77.4865 28.792 76.2505 31.6 75.0265 34H70.5625ZM101.372 33.352C100.46 33.616 99.2835 33.856 97.8435 34.072C96.4035 34.312 94.8915 34.432 93.3075 34.432C91.6995 34.432 90.3555 34.216 89.2755 33.784C88.2195 33.352 87.3795 32.752 86.7555 31.984C86.1315 31.192 85.6875 30.256 85.4235 29.176C85.1595 28.096 85.0275 26.908 85.0275 25.612V15.064H90.3915V24.964C90.3915 26.692 90.6195 27.94 91.0755 28.708C91.5315 29.476 92.3835 29.86 93.6315 29.86C94.0155 29.86 94.4235 29.848 94.8555 29.824C95.2875 29.776 95.6715 29.728 96.0075 29.68V15.064H101.372V33.352ZM105.507 24.676C105.507 22.996 105.759 21.532 106.263 20.284C106.791 19.012 107.475 17.956 108.315 17.116C109.155 16.276 110.115 15.64 111.195 15.208C112.299 14.776 113.427 14.56 114.579 14.56C117.267 14.56 119.391 15.388 120.951 17.044C122.511 18.676 123.291 21.088 123.291 24.28C123.291 24.592 123.279 24.94 123.255 25.324C123.231 25.684 123.207 26.008 123.183 26.296H111.015C111.135 27.4 111.651 28.276 112.563 28.924C113.475 29.572 114.699 29.896 116.235 29.896C117.219 29.896 118.179 29.812 119.115 29.644C120.075 29.452 120.855 29.224 121.455 28.96L122.175 33.316C121.887 33.46 121.503 33.604 121.023 33.748C120.543 33.892 120.003 34.012 119.403 34.108C118.827 34.228 118.203 34.324 117.531 34.396C116.859 34.468 116.187 34.504 115.515 34.504C113.811 34.504 112.323 34.252 111.051 33.748C109.803 33.244 108.759 32.56 107.919 31.696C107.103 30.808 106.491 29.764 106.083 28.564C105.699 27.364 105.507 26.068 105.507 24.676ZM118.107 22.624C118.083 22.168 117.999 21.724 117.855 21.292C117.735 20.86 117.531 20.476 117.243 20.14C116.979 19.804 116.631 19.528 116.199 19.312C115.791 19.096 115.275 18.988 114.651 18.988C114.051 18.988 113.535 19.096 113.103 19.312C112.671 19.504 112.311 19.768 112.023 20.104C111.735 20.44 111.507 20.836 111.339 21.292C111.195 21.724 111.087 22.168 111.015 22.624H118.107Z" fill="black"/>
<path d="M109.472 51C109.259 51 109.077 50.9307 108.928 50.792C108.789 50.6427 108.72 50.4613 108.72 50.248C108.72 50.0347 108.789 49.8533 108.928 49.704C109.077 49.5547 109.259 49.48 109.472 49.48C109.685 49.48 109.867 49.5547 110.016 49.704C110.165 49.8533 110.24 50.0347 110.24 50.248C110.24 50.4613 110.165 50.6427 110.016 50.792C109.867 50.9307 109.685 51 109.472 51ZM112.937 41.816C112.67 41.816 112.446 41.7253 112.265 41.544C112.084 41.3627 111.993 41.1387 111.993 40.872C111.993 40.6053 112.084 40.3813 112.265 40.2C112.446 40.0187 112.67 39.928 112.937 39.928C113.214 39.928 113.444 40.0187 113.625 40.2C113.817 40.3813 113.913 40.6053 113.913 40.872C113.913 41.1387 113.817 41.3627 113.625 41.544C113.444 41.7253 113.214 41.816 112.937 41.816ZM112.121 43.32H113.769V51H112.121V43.32ZM120.041 51.24C119.177 51.24 118.414 51.08 117.753 50.76C117.102 50.4293 116.59 49.96 116.217 49.352C115.854 48.7333 115.673 48.008 115.673 47.176C115.673 46.3547 115.854 45.6347 116.217 45.016C116.58 44.3973 117.092 43.9227 117.753 43.592C118.414 43.2507 119.177 43.08 120.041 43.08C120.905 43.08 121.668 43.2507 122.329 43.592C122.99 43.9227 123.502 44.3973 123.865 45.016C124.238 45.6347 124.425 46.3547 124.425 47.176C124.425 48.008 124.238 48.7333 123.865 49.352C123.502 49.96 122.99 50.4293 122.329 50.76C121.668 51.08 120.905 51.24 120.041 51.24ZM120.041 49.96C120.873 49.96 121.534 49.704 122.025 49.192C122.516 48.68 122.761 48.008 122.761 47.176C122.761 46.312 122.516 45.6293 122.025 45.128C121.534 44.6267 120.873 44.376 120.041 44.376C119.209 44.376 118.548 44.6267 118.057 45.128C117.566 45.6293 117.321 46.312 117.321 47.176C117.321 48.008 117.566 48.68 118.057 49.192C118.548 49.704 119.209 49.96 120.041 49.96Z" fill="black"/>
</svg>
